<svg xmlns="http://www.w3.org/2000/svg" viewBox="0 0 120 120" width="120" height="120"><defs><linearGradient id="gold" x1="0" y1="0" x2="1" y2="1"><stop offset="0" stop-color="#8a6424"/><stop offset=".28" stop-color="#e6c77e"/><stop offset=".5" stop-color="#fff0c4"/><stop offset=".7" stop-color="#d2aa5a"/><stop offset="1" stop-color="#8f6a2b"/></linearGradient></defs><path d="M25 3H95A22 22 0 0 0 117 25V95A22 22 0 0 0 95 117H25A22 22 0 0 0 3 95V25A22 22 0 0 0 25 3Z" fill="none" stroke="#b98f3f" stroke-width="2"/><path d="M27 10H93A17 17 0 0 0 110 27V93A17 17 0 0 0 93 110H27A17 17 0 0 0 10 93V27A17 17 0 0 0 27 10Z" fill="none" stroke="#caa55c" stroke-width=".9"/><g fill="#c49a4c"><path d="M22 22l3.5 3.5-3.5 3.5-3.5-3.5z"/><path d="M98 22l3.5 3.5-3.5 3.5-3.5-3.5z"/><path d="M22 91l3.5 3.5-3.5 3.5-3.5-3.5z"/><path d="M98 91l3.5 3.5-3.5 3.5-3.5-3.5z"/></g></svg>