<svg xmlns="http://www.w3.org/2000/svg" viewBox="0 0 200 200" width="200" height="200"><defs><clipPath id="c"><path d="M0 0H176L0 176Z"/></clipPath><clipPath id="c2"><path d="M0 0H176L0 176Z"/></clipPath></defs><g clip-path="url(#c)"><g transform="translate(0 0)"><g transform="translate(-13 117)"><rect x="-13.0" y="-13.0" width="26.0" height="26.0" fill="#c1582f"/><circle cx="-6" cy="-6" r="1.9" fill="#f7ecd9"/><circle cx="-6" cy="6" r="1.9" fill="#f7ecd9"/><circle cx="0" cy="0" r="1.9" fill="#f7ecd9"/><circle cx="6" cy="-6" r="1.9" fill="#f7ecd9"/><circle cx="6" cy="6" r="1.9" fill="#f7ecd9"/></g><g transform="translate(-13 143)"><rect x="-13.0" y="-13.0" width="26.0" height="26.0" fill="#1d5c63"/><path d="M-13.0 13.0L13.0 -13.0L13.0 13.0Z" fill="#f7ecd9" opacity=".9"/></g><g transform="translate(-13 169)"><rect x="-13.0" y="-13.0" width="26.0" height="26.0" fill="#9c3f22"/><circle cx="-6" cy="-6" r="1.9" fill="#f7ecd9"/><circle cx="-6" cy="6" r="1.9" fill="#f7ecd9"/><circle cx="0" cy="0" r="1.9" fill="#f7ecd9"/><circle cx="6" cy="-6" r="1.9" fill="#f7ecd9"/><circle cx="6" cy="6" r="1.9" fill="#f7ecd9"/></g><g transform="translate(13 91)"><rect x="-13.0" y="-13.0" width="26.0" height="26.0" fill="#9c3f22"/><path d="M0 -7.8L7.8 0L0 7.8L-7.8 0Z" fill="#f7ecd9"/></g><g transform="translate(13 117)"><rect x="-13.0" y="-13.0" width="26.0" height="26.0" fill="#1d5c63"/><path d="M-13.0 0H13.0M0 -13.0V13.0" stroke="#f7ecd9" stroke-width="2.4"/></g><g transform="translate(13 143)"><rect x="-13.0" y="-13.0" width="26.0" height="26.0" fill="#f7ecd9"/><path d="M0 -7.8L7.8 0L0 7.8L-7.8 0Z" fill="#1d5c63"/></g><g transform="translate(39 65)"><rect x="-13.0" y="-13.0" width="26.0" height="26.0" fill="#f7ecd9"/><path d="M-13.0 13.0L13.0 -13.0L13.0 13.0Z" fill="#1d5c63" opacity=".9"/></g><g transform="translate(39 91)"><rect x="-13.0" y="-13.0" width="26.0" height="26.0" fill="#dca84e"/><circle cx="-6" cy="-6" r="1.9" fill="#1d5c63"/><circle cx="-6" cy="6" r="1.9" fill="#1d5c63"/><circle cx="0" cy="0" r="1.9" fill="#1d5c63"/><circle cx="6" cy="-6" r="1.9" fill="#1d5c63"/><circle cx="6" cy="6" r="1.9" fill="#1d5c63"/></g><g transform="translate(39 117)"><rect x="-13.0" y="-13.0" width="26.0" height="26.0" fill="#c1582f"/><path d="M-13.0 13.0L13.0 -13.0L13.0 13.0Z" fill="#f7ecd9" opacity=".9"/></g><g transform="translate(65 39)"><rect x="-13.0" y="-13.0" width="26.0" height="26.0" fill="#c1582f"/><path d="M-13.0 0H13.0M0 -13.0V13.0" stroke="#f7ecd9" stroke-width="2.4"/></g><g transform="translate(65 65)"><rect x="-13.0" y="-13.0" width="26.0" height="26.0" fill="#1d5c63"/><path d="M0 -7.8L7.8 0L0 7.8L-7.8 0Z" fill="#f7ecd9"/></g><g transform="translate(65 91)"><rect x="-13.0" y="-13.0" width="26.0" height="26.0" fill="#9c3f22"/><path d="M-13.0 0H13.0M0 -13.0V13.0" stroke="#f7ecd9" stroke-width="2.4"/></g><g transform="translate(91 13)"><rect x="-13.0" y="-13.0" width="26.0" height="26.0" fill="#9c3f22"/><circle cx="-6" cy="-6" r="1.9" fill="#f7ecd9"/><circle cx="-6" cy="6" r="1.9" fill="#f7ecd9"/><circle cx="0" cy="0" r="1.9" fill="#f7ecd9"/><circle cx="6" cy="-6" r="1.9" fill="#f7ecd9"/><circle cx="6" cy="6" r="1.9" fill="#f7ecd9"/></g><g transform="translate(91 39)"><rect x="-13.0" y="-13.0" width="26.0" height="26.0" fill="#1d5c63"/><path d="M-13.0 13.0L13.0 -13.0L13.0 13.0Z" fill="#f7ecd9" opacity=".9"/></g><g transform="translate(91 65)"><rect x="-13.0" y="-13.0" width="26.0" height="26.0" fill="#f7ecd9"/><circle cx="-6" cy="-6" r="1.9" fill="#1d5c63"/><circle cx="-6" cy="6" r="1.9" fill="#1d5c63"/><circle cx="0" cy="0" r="1.9" fill="#1d5c63"/><circle cx="6" cy="-6" r="1.9" fill="#1d5c63"/><circle cx="6" cy="6" r="1.9" fill="#1d5c63"/></g><g transform="translate(117 -13)"><rect x="-13.0" y="-13.0" width="26.0" height="26.0" fill="#f7ecd9"/><path d="M0 -7.8L7.8 0L0 7.8L-7.8 0Z" fill="#1d5c63"/></g><g transform="translate(117 13)"><rect x="-13.0" y="-13.0" width="26.0" height="26.0" fill="#dca84e"/><path d="M-13.0 0H13.0M0 -13.0V13.0" stroke="#1d5c63" stroke-width="2.4"/></g><g transform="translate(117 39)"><rect x="-13.0" y="-13.0" width="26.0" height="26.0" fill="#c1582f"/><path d="M0 -7.8L7.8 0L0 7.8L-7.8 0Z" fill="#f7ecd9"/></g><g transform="translate(143 -13)"><rect x="-13.0" y="-13.0" width="26.0" height="26.0" fill="#1d5c63"/><circle cx="-6" cy="-6" r="1.9" fill="#f7ecd9"/><circle cx="-6" cy="6" r="1.9" fill="#f7ecd9"/><circle cx="0" cy="0" r="1.9" fill="#f7ecd9"/><circle cx="6" cy="-6" r="1.9" fill="#f7ecd9"/><circle cx="6" cy="6" r="1.9" fill="#f7ecd9"/></g><g transform="translate(143 13)"><rect x="-13.0" y="-13.0" width="26.0" height="26.0" fill="#9c3f22"/><path d="M-13.0 13.0L13.0 -13.0L13.0 13.0Z" fill="#f7ecd9" opacity=".9"/></g><g transform="translate(169 -13)"><rect x="-13.0" y="-13.0" width="26.0" height="26.0" fill="#f7ecd9"/><path d="M-13.0 0H13.0M0 -13.0V13.0" stroke="#1d5c63" stroke-width="2.4"/></g></g></g><path d="M0 98L98 0" stroke="#23373a" stroke-width="1.2" fill="none"/><path d="M0 176L176 0" stroke="#23373a" stroke-width="1.6" fill="none"/><path d="M0 176l7 7l7 -7M14 162l7 7l7 -7M28 148l7 7l7 -7M42 134l7 7l7 -7M56 120l7 7l7 -7M70 106l7 7l7 -7M84 92l7 7l7 -7M98 78l7 7l7 -7M112 64l7 7l7 -7M126 50l7 7l7 -7M140 36l7 7l7 -7M154 22l7 7l7 -7M168 8l7 7l7 -7" fill="none" stroke="#c1582f" stroke-width="2"/><circle cx="12" cy="190" r="1.8" fill="#dca84e"/><circle cx="26" cy="176" r="1.8" fill="#dca84e"/><circle cx="40" cy="162" r="1.8" fill="#dca84e"/><circle cx="54" cy="148" r="1.8" fill="#dca84e"/><circle cx="68" cy="134" r="1.8" fill="#dca84e"/><circle cx="82" cy="120" r="1.8" fill="#dca84e"/><circle cx="96" cy="106" r="1.8" fill="#dca84e"/><circle cx="110" cy="92" r="1.8" fill="#dca84e"/><circle cx="124" cy="78" r="1.8" fill="#dca84e"/><circle cx="138" cy="64" r="1.8" fill="#dca84e"/><circle cx="152" cy="50" r="1.8" fill="#dca84e"/><circle cx="166" cy="36" r="1.8" fill="#dca84e"/><path d="M12 86l6 -6v6z" fill="#c1582f"/><path d="M24 74l6 -6v6z" fill="#c1582f"/><path d="M36 62l6 -6v6z" fill="#c1582f"/><path d="M48 50l6 -6v6z" fill="#c1582f"/><path d="M60 38l6 -6v6z" fill="#c1582f"/><path d="M72 26l6 -6v6z" fill="#c1582f"/><path d="M84 14l6 -6v6z" fill="#c1582f"/></svg>